<svg width="259" height="82" viewBox="0 0 259 82" fill="none" xmlns="http://www.w3.org/2000/svg">
<path d="M4.76041 2.25419C4.90079 1.15858 4.12643 0.156607 3.03082 0.0162195C1.93521 -0.124168 0.933233 0.650193 0.792845 1.74581L4.76041 2.25419ZM258.988 32.1587C259.109 31.0607 258.316 30.073 257.218 29.9526L239.325 27.9903C238.227 27.8699 237.24 28.6624 237.119 29.7604C236.999 30.8584 237.791 31.8461 238.889 31.9665L254.794 33.7107L253.05 49.6154C252.929 50.7133 253.722 51.701 254.82 51.8215C255.918 51.9419 256.905 51.1494 257.026 50.0514L258.988 32.1587ZM0.792845 1.74581C-1.11262 16.6164 0.473218 29.1968 4.94304 39.6837C9.41605 50.1782 16.7259 58.455 26.0723 64.7877C44.6995 77.409 71.4311 82.3288 100.315 81.9831C129.253 81.6367 160.627 76.0022 188.781 67.2375C216.909 58.4811 241.99 46.5484 258.252 33.5006L255.748 30.3807C240.025 42.9963 215.465 54.7412 187.592 63.4183C159.746 72.0872 128.758 77.6423 100.267 77.9833C71.7225 78.325 45.9582 73.4301 28.316 61.4763C19.5277 55.5216 12.7595 47.8208 8.62274 38.1153C4.48282 28.4024 2.92724 16.5605 4.76041 2.25419L0.792845 1.74581Z" fill="#00BB61"/>
</svg>
