<svg width="26" height="26" viewBox="0 0 26 26" fill="none" xmlns="http://www.w3.org/2000/svg">
<g clip-path="url(#clip0_1_2928)">
<path d="M22 0H4C1.79086 0 0 1.79086 0 4V22C0 24.2091 1.79086 26 4 26H22C24.2091 26 26 24.2091 26 22V4C26 1.79086 24.2091 0 22 0Z" fill="#0088CC"/>
<mask id="mask0_1_2928" style="mask-type:luminance" maskUnits="userSpaceOnUse" x="4" y="6" width="16" height="14">
<path d="M20 6H4V20H20V6Z" fill="white"/>
</mask>
<g mask="url(#mask0_1_2928)">
<path fill-rule="evenodd" clip-rule="evenodd" d="M15.6818 19.3376C15.8864 19.4824 16.1501 19.5186 16.3852 19.4297C16.6203 19.3401 16.7931 19.1393 16.8452 18.8959C17.3974 16.3009 18.7368 9.73257 19.2395 7.372C19.2776 7.19409 19.214 7.00918 19.0742 6.89035C18.9345 6.77153 18.7407 6.73722 18.5678 6.8014C15.9035 7.78756 7.69838 10.8662 4.34465 12.1071C4.13178 12.1859 3.99326 12.3905 4.00025 12.6148C4.00788 12.8398 4.15911 13.0348 4.37705 13.1003C5.88109 13.5502 7.85533 14.176 7.85533 14.176C7.85533 14.176 8.77795 16.9624 9.25896 18.3793C9.31933 18.5573 9.45848 18.6971 9.64212 18.7453C9.82512 18.793 10.0208 18.7428 10.1574 18.6138C10.9301 17.8844 12.1247 16.7565 12.1247 16.7565C12.1247 16.7565 14.3944 18.4206 15.6818 19.3376ZM8.68582 13.824L9.75268 17.343L9.98969 15.1145C9.98969 15.1145 14.1116 11.3967 16.4614 9.27762C16.53 9.21535 16.5396 9.11114 16.4824 9.03806C16.4258 8.96499 16.3216 8.94784 16.2435 8.9974C13.5201 10.7365 8.68582 13.824 8.68582 13.824Z" fill="white"/>
</g>
</g>
<defs>
<clipPath id="clip0_1_2928">
<rect width="26" height="26" fill="white"/>
</clipPath>
</defs>
</svg>
