<svg width="26" height="26" viewBox="0 0 26 26" fill="none" xmlns="http://www.w3.org/2000/svg">
<g clip-path="url(#clip0_1_2920)">
<path d="M22 0H4C1.79086 0 0 1.79086 0 4V22C0 24.2091 1.79086 26 4 26H22C24.2091 26 26 24.2091 26 22V4C26 1.79086 24.2091 0 22 0Z" fill="#009A5C"/>
<mask id="mask0_1_2920" style="mask-type:luminance" maskUnits="userSpaceOnUse" x="5" y="4" width="17" height="17">
<path d="M22 4H5V21H22V4Z" fill="white"/>
</mask>
<g mask="url(#mask0_1_2920)">
<path d="M17.4123 13.7052C17.3797 13.6894 16.1567 13.083 15.9394 13.0042C15.8507 12.9721 15.7556 12.9408 15.6545 12.9408C15.4894 12.9408 15.3507 13.0237 15.2426 13.1865C15.1205 13.3693 14.7506 13.8046 14.6363 13.9346C14.6214 13.9518 14.6011 13.9723 14.5889 13.9723C14.5779 13.9723 14.3886 13.8938 14.3313 13.8688C13.0195 13.2949 12.0237 11.9151 11.8872 11.6824C11.8677 11.6489 11.8667 11.6337 11.8667 11.6337C11.8715 11.616 11.9156 11.5715 11.9384 11.5485C12.005 11.4821 12.0771 11.3947 12.147 11.31C12.18 11.2699 12.2131 11.2298 12.2456 11.192C12.3469 11.0733 12.392 10.9811 12.4443 10.8744L12.4717 10.819C12.5994 10.5636 12.4903 10.348 12.4551 10.2784C12.4262 10.2202 11.9098 8.9653 11.8549 8.83346C11.7229 8.51532 11.5484 8.36719 11.306 8.36719C11.2835 8.36719 11.306 8.36719 11.2117 8.37119C11.0968 8.37607 10.4713 8.45899 10.1947 8.63454C9.90144 8.82073 9.40527 9.41424 9.40527 10.458C9.40527 11.3974 9.99729 12.2844 10.2515 12.6217C10.2578 12.6302 10.2694 12.6475 10.2862 12.6723C11.2597 14.1037 12.4732 15.1646 13.7034 15.6595C14.8877 16.1358 15.4486 16.1909 15.7674 16.1909C15.9013 16.1909 16.0087 16.1803 16.1033 16.1709L16.1633 16.1652C16.5724 16.1286 17.4715 15.6595 17.676 15.0872C17.8372 14.6365 17.8796 14.144 17.7724 13.9653C17.699 13.8438 17.5725 13.7826 17.4123 13.7052Z" fill="white"/>
<path d="M13.5364 4C8.9932 4 5.29704 7.69386 5.29704 12.2342C5.29704 13.7027 5.68733 15.1402 6.42668 16.3983L5.01153 20.6017C4.98517 20.6801 5.00478 20.7667 5.06235 20.8257C5.1039 20.8685 5.16028 20.8915 5.21784 20.8915C5.2399 20.8915 5.26212 20.8881 5.2838 20.8812L9.63659 19.4884C10.8277 20.1292 12.174 20.4675 13.5365 20.4675C18.0792 20.4676 21.775 16.7741 21.775 12.2342C21.775 7.69386 18.0792 4 13.5364 4ZM13.5364 18.7523C12.2544 18.7523 11.0126 18.3795 9.94524 17.6743C9.90934 17.6505 9.86768 17.6383 9.82574 17.6383C9.80357 17.6383 9.78135 17.6417 9.75973 17.6487L7.57925 18.3466L8.28315 16.2555C8.30591 16.1878 8.29453 16.1132 8.25259 16.0555C7.43977 14.9371 7.0101 13.6158 7.0101 12.2342C7.0101 8.63968 9.93777 5.71525 13.5363 5.71525C17.1345 5.71525 20.0618 8.63968 20.0618 12.2342C20.0619 15.8283 17.1346 18.7523 13.5364 18.7523Z" fill="white"/>
</g>
</g>
<defs>
<clipPath id="clip0_1_2920">
<rect width="26" height="26" fill="white"/>
</clipPath>
</defs>
</svg>
